
<svg
  xmlns="http://www.w3.org/2000/svg"
  viewBox="0 0 24 24"
  fill="slategrey"
>
  <path
    d="M12 .297a12 12 0 00-3.793 23.402c.6.111.793-.261.793-.582v-2.234c-3.338.726-4.033-1.416-4.033-1.416-.546-1.387-1.333-1.756-1.333-1.756-1.089-.744.083-.729.083-.729 1.205.084 1.84 1.237 1.84 1.237 1.07 1.834 2.807 1.304 3.492.997.108-.775.418-1.305.762-1.604-2.665-.305-5.466-1.334-5.466-5.931 0-1.311.469-2.382 1.236-3.221-.124-.303-.536-1.527.117-3.176 0 0 1.008-.322 3.301 1.23a11.53 11.53 0 016.003 0c2.293-1.552 3.301-1.23 3.301-1.23.653 1.649.241 2.873.118 3.176.768.839 1.236 1.91 1.236 3.221 0 4.609-2.803 5.624-5.475 5.921.43.372.823 1.102.823 2.222v3.293c0 .324.192.698.801.579A12 12 0 0012 .297z"
  />
</svg>